# Blender 4.5.3 LTS
# www.blender.org
o Icosphere
v -1.543075 0.038088 0.380416
v -0.014500 -0.881724 -0.168100
v -1.597175 0.920973 1.151335
v -1.918526 2.206970 0.839539
v -1.865044 0.946177 0.812026
v -0.240656 -0.533352 -0.829172
v -0.961761 0.090831 0.794485
v -1.687946 2.100228 0.914300
v -1.815327 2.040573 0.676875
v -1.144295 0.460483 0.003194
v 0.535419 -0.424509 -0.540086
v -1.105947 0.861471 0.617512
v -1.558333 0.494582 1.084038
v -0.879484 -0.642992 -0.135994
v -1.120736 -0.389265 0.585578
v 0.190188 -1.016574 -0.820710
v -0.958259 -0.477758 -0.358817
v -1.984545 1.508325 1.035158
v -1.920600 1.992339 0.969005
v -1.775382 0.554896 0.660862
v -1.964127 1.985361 0.865872
v -1.229264 -0.093181 -0.255589
v 0.621219 -0.735610 -0.508997
v 0.513862 -0.547154 -0.849693
v -1.321268 0.345263 0.960430
v -0.487627 -0.603714 0.306957
v -1.795858 2.292454 0.899327
v -1.796154 1.902764 1.070205
v -1.909384 1.765601 0.762638
v -1.889297 2.243617 0.686879
v -0.741135 0.047898 -0.588311
v -1.439983 0.596682 0.145373
v 0.054146 -0.332156 0.040042
v -1.340093 1.049211 1.019501
v -1.738077 2.240525 0.751686
v -1.652599 1.147389 0.588586
v -0.108393 -0.034121 -0.491373
v -0.848515 0.341450 0.711005
v -0.304877 0.105439 0.056193
v -1.539052 1.538269 0.856255
v -1.585935 1.535522 0.745732
v -0.964468 0.579984 0.241887
v -1.151469 -0.068968 -0.574362
v -0.768178 -0.176099 -0.662243
v -0.936481 -0.026540 -0.688409
v -0.538615 -0.779520 0.106047
v -0.807542 -0.730567 0.370727
v -0.662930 -0.680483 0.354693
v -0.667044 -0.932357 0.638573
v -0.861204 -0.952330 0.730354
v -0.760454 -0.821391 0.507999
v -1.479162 -0.063700 -0.892761
v -1.277403 -0.174489 -0.893849
v -1.204870 -0.060822 -0.790995
v -1.669114 2.822131 1.358405
v -1.965950 2.512966 0.777555
v -2.075224 2.657679 0.147129
v -1.912411 2.547312 0.744859
v -1.987794 2.566914 0.709287
v -1.942419 2.585682 0.799808
v -1.939464 2.550462 0.752360
v 0.592984 -0.804969 -0.563165
v -0.690441 -0.471475 -0.565887
v -0.119580 -0.630075 -0.839548
v 0.493699 -0.630612 -0.878566
v -0.613578 -0.755288 -0.078313
v 0.015094 -0.910612 -0.279645
v -0.538877 -0.776851 0.038705
v -0.668309 -0.327845 -0.660706
v -1.386975 1.244502 0.749089
v -1.503366 1.438999 0.798510
v -1.512561 1.437458 0.778790
v -1.533539 1.493019 0.787703
v -1.439086 1.429590 0.758209
v -1.439529 1.449403 0.760115
v -1.445987 1.448690 0.750263
v -0.123803 -0.810139 -0.104026
v 0.272434 -0.692686 -0.140257
v 0.006500 -0.835303 -0.148681
v -0.377486 -0.414781 -0.765185
v 0.070716 -0.344169 -0.803002
v -0.222497 -0.478393 -0.800278
v -0.027552 -0.837065 -0.151702
v -0.031731 -0.853460 -0.158709
v -0.063620 -0.826781 -0.135537
v -0.298720 -0.465542 -0.778778
v -0.254686 -0.503100 -0.800169
v -0.257855 -0.484267 -0.787954
vn -0.4083 -0.7698 0.4906
vn -0.1729 -0.9637 0.2037
vn -0.9030 -0.3691 0.2199
vn 0.5347 -0.2046 0.8199
vn -0.7927 -0.0258 -0.6091
vn 0.9309 -0.1037 -0.3503
vn -0.5703 -0.4916 0.6581
vn -0.6148 0.4117 0.6727
vn -0.9361 -0.0714 -0.3444
vn -0.6400 -0.4276 -0.6384
vn -0.0033 -0.8471 0.5314
vn 0.8132 0.2097 0.5429
vn -0.4910 0.0992 0.8655
vn -0.8585 -0.0770 -0.5070
vn -0.2984 -0.2140 -0.9301
vn 0.5958 -0.0017 0.8032
vn 0.9150 0.2731 -0.2970
vn 0.5154 0.1184 -0.8487
vn 0.3064 0.7385 -0.6006
vn 0.5164 0.8557 -0.0328
vn 0.4483 0.7881 -0.4218
vn 0.5846 0.8113 0.0030
vn 0.1466 0.8359 -0.5289
vn 0.7927 0.5921 -0.1451
vn -0.1355 0.3917 -0.9100
vn 0.6421 0.1904 -0.7426
vn 0.7396 0.5875 -0.3283
vn 0.9007 0.1976 -0.3870
vn 0.9624 0.2623 -0.0704
vn 0.8544 0.4647 0.2325
vn 0.8385 0.4457 0.3135
vn 0.5569 0.0249 0.8302
vn 0.7579 0.4586 0.4639
vn 0.7190 0.5756 0.3895
vn 0.6859 0.5449 0.4823
vn 0.4652 0.8114 -0.3538
vn 0.2844 0.7564 -0.5891
vn 0.1843 0.8606 -0.4747
vn -0.1064 0.5982 -0.7943
vn 0.9171 0.3954 -0.0513
vn -0.6164 -0.0345 -0.7867
vn 0.3902 0.1866 -0.9016
vn 0.3893 0.2012 -0.8988
vn 0.8551 0.4926 0.1614
vn 0.5939 0.2723 0.7571
vn -0.0481 -0.0848 0.9952
vn 0.3785 -0.0673 0.9232
vn 0.5189 -0.2247 0.8248
vn 0.4910 -0.1333 0.8609
vn 0.7619 0.2690 0.5892
vn 0.1597 0.8574 -0.4892
vn -0.5941 0.2608 -0.7610
vn -0.8219 0.0770 -0.5644
vn -0.4519 -0.1211 -0.8838
vn -0.9069 -0.0285 -0.4203
vn -0.9727 0.1833 -0.1423
vn 0.5066 0.3459 0.7897
vn -0.4144 0.3657 0.8334
vn -0.6600 -0.0720 0.7479
vn -0.0544 -0.5983 0.7994
vn 0.2611 -0.3813 0.8868
vn -0.2393 0.8445 0.4791
vn 0.9550 0.2470 -0.1643
vn -0.0633 -0.0991 -0.9931
vn -0.5948 -0.2109 -0.7757
vn -0.8258 -0.5552 -0.0995
vn -0.8586 0.0013 -0.5126
vn 0.9263 0.0691 0.3705
vn -0.9408 -0.0768 -0.3300
vn -0.8008 0.2305 0.5529
vn -0.9547 0.1604 0.2506
vn 0.1571 0.1133 0.9811
vn -0.8304 -0.1599 0.5337
vn -0.4846 -0.4256 -0.7642
vn -0.5145 -0.7657 -0.3859
vn -0.7696 -0.6121 -0.1818
vn 0.7082 -0.0467 0.7045
vn -0.9182 -0.3511 -0.1835
vn -0.4150 -0.8928 0.1752
vn -0.0269 0.9987 0.0442
vn -0.2057 0.7822 0.5881
vn 0.3635 0.2521 -0.8968
vn -0.2737 0.9618 0.0063
vn -0.7042 -0.2216 -0.6745
vn 0.2982 -0.6641 0.6856
vn 0.4576 -0.7235 0.5169
vn 0.2986 -0.2970 0.9070
vn -0.5736 -0.8186 -0.0302
vn -0.2969 -0.9440 -0.1442
vn -0.0203 0.3678 -0.9297
vn -0.2753 0.9468 -0.1668
vn 0.1808 0.8095 0.5586
vn 0.4757 0.8084 0.3467
vn -0.1680 -0.8277 -0.5355
vn 0.2891 0.5343 -0.7943
vn 0.3263 0.2058 -0.9226
vn -0.1707 -0.9136 0.3690
vn -0.1546 0.9851 0.0751
vn 0.0771 0.8435 0.5316
vn 0.8759 -0.0905 0.4740
vn -0.4878 -0.8008 -0.3475
vn 0.3628 0.4872 -0.7943
vn -0.4323 -0.7916 0.4319
vn -0.9617 -0.2515 0.1090
vn 0.1930 0.9729 0.1271
vn -0.9486 -0.3020 0.0951
vn 0.8934 0.1525 -0.4226
vn -0.7785 -0.2943 0.5545
vn 0.9633 0.1192 -0.2404
vn -0.9538 -0.1943 -0.2293
vn 0.8563 0.4902 0.1627
vn -0.3457 0.6792 0.6474
vn -0.9115 0.1821 0.3689
vn 0.1643 0.9688 0.1857
vn 0.2264 0.8523 -0.4715
vn -0.8607 0.3816 -0.3369
vn -0.0726 0.7987 -0.5974
vn 0.9305 -0.1046 -0.3511
vn 0.6332 -0.5755 -0.5175
vn -0.4819 -0.5282 -0.6991
vn -0.0619 0.2106 -0.9756
vn 0.3024 -0.9122 0.2765
vn -0.5005 -0.4219 -0.7559
vn -0.4605 -0.8778 0.1322
vn -0.1998 -0.9717 0.1256
vn -0.5167 -0.5150 -0.6839
vn -0.3733 -0.9244 -0.0788
vn -0.1662 0.9861 0.0005
vn 0.0453 0.3168 -0.9474
vn 0.3799 -0.7909 0.4797
vn 0.7948 -0.5021 0.3409
vn 0.3958 -0.7678 0.5038
vn -0.2103 -0.9769 -0.0379
vn -0.2126 -0.9761 -0.0441
vn -0.6403 -0.3520 -0.6827
vn -0.4770 -0.3222 -0.8177
vn 0.8194 0.5615 0.1155
vn 0.6826 0.5350 -0.4979
vn 0.8696 0.4414 -0.2214
vn 0.8155 0.5557 -0.1617
vn 0.0906 0.3824 -0.9196
vn 0.7449 0.3703 -0.5550
vn 0.8271 0.3789 -0.4152
vn 0.8318 0.0716 -0.5505
vn 0.9477 0.2748 -0.1625
vn 0.5037 0.0829 0.8599
vn -0.1465 0.9889 0.0245
vn -0.3769 -0.1036 -0.9204
vn 0.1772 0.0982 -0.9793
vn 0.2621 -0.4350 0.8615
vn 0.2753 -0.7390 0.6149
vn 0.2118 -0.4463 0.8695
vn 0.5142 -0.6481 0.5618
vn -0.1229 0.2686 -0.9554
vn -0.1192 0.2409 -0.9632
vn -0.0755 -0.3556 0.9316
vn 0.0655 0.5507 -0.8321
vn -0.3593 0.4645 -0.8094
vn 0.3297 0.7285 -0.6004
vn 0.4264 -0.1477 0.8924
vn -0.2957 -0.1861 -0.9370
vn 0.6662 0.1645 0.7274
vn -0.0623 -0.3787 0.9234
vn -0.4069 0.5268 -0.7463
vn 0.3802 0.7389 -0.5562
vn 0.7286 0.1025 0.6772
vn 0.1941 0.7489 -0.6336
vn -0.0318 -0.9076 0.4186
vn 0.2354 0.3902 -0.8901
vn -0.0765 0.1472 -0.9861
vt 0.181819 0.000000
vt 0.227273 0.078731
vt 0.136365 0.078731
vt 0.272728 0.157461
vt 0.280148 0.144609
vt 0.281232 0.157461
vt 0.909091 0.000000
vt 0.954545 0.078731
vt 0.863636 0.078731
vt 0.727273 0.000000
vt 0.772727 0.078731
vt 0.681818 0.078731
vt 0.545455 0.000000
vt 0.590909 0.078731
vt 0.500000 0.078731
vt 0.324577 0.225115
vt 0.402687 0.225098
vt 0.409092 0.236191
vt 0.090910 0.157461
vt 0.181819 0.157461
vt 0.136365 0.236191
vt 0.818182 0.157461
vt 0.909091 0.157461
vt 0.863636 0.236191
vt 0.636364 0.157461
vt 0.727273 0.157461
vt 0.681818 0.236191
vt 0.545455 0.157461
vt 0.454546 0.157461
vt 0.473257 0.157461
vt 0.267592 0.166357
vt 0.276331 0.163702
vt 0.045455 0.236191
vt 0.590909 0.236191
vt 0.447898 0.168975
vt 0.461646 0.169758
vt 0.181819 0.314921
vt 0.272728 0.314921
vt 0.227273 0.393651
vt 0.000000 0.314921
vt 0.090910 0.314921
vt 0.045455 0.393651
vt 0.727273 0.314921
vt 0.818182 0.314921
vt 0.772727 0.393651
vt 0.545455 0.314921
vt 0.636364 0.314921
vt 0.590909 0.393651
vt 0.363637 0.314921
vt 0.454546 0.314921
vt 0.409092 0.393651
vt 0.500000 0.393651
vt 0.454546 0.472382
vt 0.681818 0.393651
vt 0.636364 0.472382
vt 0.863636 0.393651
vt 0.806220 0.393651
vt 0.909091 0.314921
vt 0.136365 0.393651
vt 0.090910 0.472382
vt 0.318182 0.393651
vt 0.272728 0.472382
vt 0.462187 0.236191
vt 0.500000 0.236191
vt 0.772727 0.236191
vt 0.227273 0.236191
vt 0.263854 0.236191
vt 0.318182 0.236191
vt 0.954545 0.236191
vt 1.000000 0.157461
vt 0.363637 0.157461
vt 0.440022 0.157461
vt 0.464014 0.141062
vt 0.445078 0.141062
vt 0.318182 0.078731
vt 0.409092 0.078731
vt 0.363637 0.000000
vt 0.265308 0.144609
vt 0.249373 0.157461
vt 0.813796 0.236191
vt 0.815485 0.236191
vt 0.817728 0.236191
vt 0.818182 0.472382
s 0
f 1/1/1 14/2/1 13/3/1
f 2/4/2 66/5/2 67/6/2
f 1/7/3 13/8/3 18/9/3
f 1/10/4 18/11/4 20/12/4
f 1/13/5 20/14/5 17/15/5
f 62/16/6 65/17/6 24/18/6
f 3/19/7 15/20/7 25/21/7
f 4/22/8 19/23/8 27/24/8
f 5/25/9 21/26/9 29/27/9
f 22/28/10 44/29/10 69/30/10
f 85/31/11 83/32/11 79/32/11
f 3/19/12 25/21/12 28/33/12
f 27/24/13 56/22/13 4/22/13
f 5/25/14 29/27/14 32/34/14
f 82/35/15 86/36/15 80/36/15
f 7/37/16 33/38/16 38/39/16
f 8/40/17 34/41/17 40/42/17
f 9/43/18 35/44/18 41/45/18
f 10/46/19 36/47/19 42/48/19
f 11/49/20 37/50/20 39/51/20
f 39/51/21 42/52/21 12/53/21
f 39/51/22 37/50/22 42/52/22
f 37/50/23 10/46/23 42/52/23
f 42/48/24 41/54/24 12/55/24
f 42/48/25 36/47/25 41/54/25
f 36/47/26 9/43/26 41/54/26
f 40/56/27 73/57/27 41/45/27
f 41/45/28 35/44/28 40/56/28
f 35/44/29 8/58/29 40/56/29
f 40/42/30 38/59/30 12/60/30
f 40/42/31 34/41/31 38/59/31
f 34/41/32 7/37/32 38/59/32
f 38/39/33 39/61/33 12/62/33
f 38/39/34 33/38/34 39/61/34
f 33/38/35 11/49/35 39/61/35
f 24/18/36 37/50/36 11/49/36
f 24/18/37 81/63/37 37/50/37
f 31/64/38 10/46/38 37/50/38
f 32/34/39 36/47/39 10/46/39
f 32/34/40 29/27/40 36/47/40
f 29/27/41 9/43/41 36/47/41
f 30/65/42 35/44/42 9/43/42
f 30/65/43 58/44/43 35/44/43
f 27/24/44 8/58/44 35/44/44
f 28/33/45 34/41/45 8/40/45
f 28/33/46 25/21/46 34/41/46
f 25/21/47 7/37/47 34/41/47
f 26/66/48 33/38/48 7/37/48
f 26/66/49 78/67/49 33/38/49
f 23/68/50 11/49/50 33/38/50
f 31/64/51 32/34/51 10/46/51
f 31/64/52 22/28/52 32/34/52
f 22/28/53 5/25/53 32/34/53
f 29/27/54 30/65/54 9/43/54
f 29/27/55 21/26/55 30/65/55
f 21/26/56 4/22/56 30/65/56
f 27/24/57 28/69/57 8/58/57
f 27/24/58 19/23/58 28/69/58
f 19/23/59 3/70/59 28/69/59
f 25/21/60 26/66/60 7/37/60
f 25/21/61 15/20/61 26/66/61
f 26/66/62 47/20/62 48/66/62
f 23/68/63 24/18/63 11/49/63
f 16/71/64 64/72/64 65/17/64
f 17/15/65 22/28/65 63/73/65
f 17/15/66 20/14/66 22/28/66
f 20/14/67 5/25/67 22/28/67
f 20/12/68 21/26/68 5/25/68
f 20/12/69 18/11/69 21/26/69
f 18/11/70 4/22/70 21/26/70
f 18/9/71 19/23/71 4/22/71
f 18/9/72 13/8/72 19/23/72
f 13/8/73 3/70/73 19/23/73
f 16/71/74 63/74/74 64/72/74
f 16/71/75 14/75/75 17/76/75
f 14/75/76 1/77/76 17/76/76
f 13/3/77 15/20/77 3/19/77
f 13/3/78 14/2/78 15/20/78
f 14/2/79 66/78/79 15/20/79
f 43/28/80 54/64/80 52/28/80
f 47/20/81 51/66/81 48/66/81
f 31/64/82 44/29/82 45/64/82
f 31/64/83 43/28/83 22/28/83
f 15/20/84 46/4/84 47/20/84
f 26/66/85 46/4/85 2/4/85 77/31/85
f 26/66/86 48/66/86 46/4/86
f 26/66/87 15/20/87 47/20/87
f 15/20/88 68/79/88 46/4/88
f 22/28/89 43/28/89 44/29/89
f 31/64/90 80/36/90 6/29/90 44/29/90
f 31/64/91 45/64/91 43/28/91
f 50/20/92 49/4/92 51/66/92
f 46/4/93 51/66/93 49/4/93
f 47/20/94 49/4/94 50/20/94
f 53/29/95 52/28/95 54/64/95
f 44/29/96 54/64/96 45/64/96
f 43/28/97 53/29/97 44/29/97
f 43/28/98 45/64/98 54/64/98
f 47/20/99 50/20/99 51/66/99
f 46/4/100 48/66/100 51/66/100
f 47/20/101 46/4/101 49/4/101
f 44/29/102 53/29/102 54/64/102
f 43/28/103 52/28/103 53/29/103
f 56/22/104 59/80/104 57/65/104
f 57/65/105 59/80/105 58/44/105
f 30/65/106 56/22/106 57/65/106
f 27/24/107 58/44/107 55/24/107
f 27/24/108 55/24/108 56/22/108
f 30/65/109 57/65/109 58/44/109
f 30/65/110 4/22/110 56/22/110
f 27/24/111 35/44/111 58/44/111
f 59/80/112 56/22/112 61/81/112
f 60/82/113 56/22/113 55/24/113
f 58/44/114 59/80/114 61/81/114
f 60/82/115 55/24/115 58/44/115
f 61/81/116 56/22/116 60/82/116
f 61/81/117 60/82/117 58/44/117
f 62/16/118 24/18/118 23/68/118
f 65/17/119 62/16/119 16/71/119
f 64/72/120 63/74/120 6/29/120
f 65/17/121 64/72/121 82/35/121
f 62/16/122 67/6/122 16/71/122
f 63/73/123 69/30/123 6/29/123
f 15/20/124 66/78/124 68/79/124
f 66/5/125 16/71/125 67/6/125
f 16/71/126 17/76/126 63/74/126
f 66/5/127 14/75/127 16/71/127
f 71/56/128 76/45/128 72/45/128
f 81/63/129 24/18/129 65/17/129
f 67/6/130 62/16/130 79/32/130
f 79/32/131 2/4/131 67/6/131
f 78/67/132 79/32/132 62/16/132
f 46/4/133 68/79/133 2/4/133
f 68/79/134 66/78/134 2/4/134
f 69/30/135 63/73/135 22/28/135
f 69/30/136 44/29/136 6/29/136
f 41/54/137 70/55/137 12/55/137
f 40/42/138 70/60/138 71/42/138
f 40/56/139 71/56/139 73/57/139
f 41/54/140 72/54/140 70/55/140
f 40/42/141 12/60/141 70/60/141
f 41/45/142 73/57/142 72/45/142
f 73/57/143 71/56/143 72/45/143
f 76/45/144 75/56/144 74/83/144
f 70/55/145 76/54/145 74/55/145
f 70/60/146 75/42/146 71/42/146
f 71/56/147 75/56/147 76/45/147
f 70/55/148 72/54/148 76/54/148
f 70/60/149 74/60/149 75/42/149
f 84/4/150 83/32/150 85/31/150
f 77/31/151 78/67/151 26/66/151
f 78/67/152 77/31/152 79/32/152
f 78/67/153 62/16/153 23/68/153
f 81/63/154 80/36/154 31/64/154
f 81/63/155 82/35/155 80/36/155
f 79/32/156 84/4/156 2/4/156
f 87/29/157 86/36/157 88/35/157
f 82/35/158 87/29/158 88/35/158
f 6/29/159 86/36/159 87/29/159
f 77/31/160 2/4/160 85/31/160
f 82/35/161 88/35/161 86/36/161
f 85/31/162 2/4/162 84/4/162
f 79/32/163 83/32/163 84/4/163
f 82/35/164 6/29/164 87/29/164
f 6/29/165 80/36/165 86/36/165
f 33/38/166 78/67/166 23/68/166
f 37/50/167 81/63/167 31/64/167
f 85/31/168 79/32/168 77/31/168
f 64/72/169 6/29/169 82/35/169
f 81/63/170 65/17/170 82/35/170
